{
  "title": "Let The Right One In (2008) 1080p Blu-Ray x264 DTS-HD MSubs -DD",
  "uid": 15861307,
  "size": 10641117155,
  "categoryP": "video",
  "categoryS": "hd___movies",
  "magnet": "?xt=urn:btih:2d9660a49bf9eaaf357074d7b87f182fd0b994a2&amp;dn=+Let+The+Right+One+In+%282008%29+1080p+Blu-Ray+x264+DTS-HD+MSubs+-DD&amp;tr=udp%3A%2F%2Ftracker.leechers-paradise.org%3A6969&amp;tr=udp%3A%2F%2Fzer0day.ch%3A1337&amp;tr=udp%3A%2F%2Fopen.demonii.com%3A1337&amp;tr=udp%3A%2F%2Ftracker.coppersurfer.tk%3A6969&amp;tr=udp%3A%2F%2Fexodus.desync.com%3A6969",
  "seeders": 55,
  "leechers": 58,
  "uploader": "SaM",
  "files": 4,
  "time": 1474301291,
  "description": "HQ 1080p Blu-ray Rip x264\r\n\r\nEnglish DTS-HD MA 5.1 Audio\r\n\r\nEnglish SDH Subtitle \r\n \nhttp://extraimago.com/image/whkY \nhttp://extraimago.com/image/whkC \nhttp://extraimago.com/image/whkB \nhttp://extraimago.com/image/whk4 \nhttp://extraimago.com/image/whke \nhttp://extraimago.com/image/whkZ \nhttp://extraimago.com/image/whkK \nhttp://extraimago.com/image/whkJ \nhttp://extraimago.com/image/whk0 \nhttp://extraimago.com/image/whkz \nhttp://extraimago.com/image/whkU \nhttp://extraimago.com/image/whkM\r\n\r\nSpecs:\r\nSource: BD50 @ HDC\r\n\r\nFormat : Matroska\r\nFile size : 9.82 GiB\r\nDuration : 1 h 54 min\r\nOverall bit rate : 12.2 Mb/s\r\n\r\nVideo\r\nID : 1\r\nFormat : AVC\r\nFormat/Info : Advanced Video Codec\r\nFormat profile :   \r\nFormat settings, CABAC : Yes\r\nFormat settings, ReFrames : 5 frames\r\nCodec ID : V_MPEG4/ISO/AVC\r\nDuration : 1 h 54 min\r\nBit rate : 10.0 Mb/s\r\nWidth : 1 920 pixels\r\nHeight : 816 pixels\r\nDisplay aspect ratio : 2.35:1\r\nFrame rate mode : Constant\r\nFrame rate : 23.976 (24000/1001) FPS\r\nColor space : YUV\r\nChroma subsampling : 4:2:0\r\nBit depth : 8 bits\r\nScan type : Progressive\r\nBits/(Pixel*Frame) : 0.266\r\nStream size : 8.03 GiB (82%)\r\nForced : No\r\nColor range : Limited\r\nColor primaries : BT.709\r\nTransfer characteristics : BT.709\r\nMatrix coefficients : BT.709\r\n\r\nAudio\r\nID : 2\r\nFormat : DTS\r\nFormat/Info : Digital Theater Systems\r\nFormat profile : MA / Core\r\nMode : 16\r\nFormat settings, Endianness : Big\r\nCodec ID : A_DTS\r\nDuration : 1 h 54 min\r\nBit rate mode : Variable / Constant\r\nBit rate : 2 240 kb/s / 1 509 kb/s\r\nChannel(s) : 6 channels\r\nChannel positions : Front: L C R, Side: L R, LFE\r\nSampling rate : 48.0 kHz\r\nFrame rate : 93.750 FPS (512 spf)\r\nBit depth : 16 bits\r\nCompression mode : Lossless / Lossy\r\nDelay relative to video : 4 ms\r\nStream size : 1.79 GiB (18%)\r\nLanguage : English\r\nDefault : Yes\r\n\r\n\r\nChapters = YES",
  "parsed": {
    "xt": "urn:btih:2d9660a49bf9eaaf357074d7b87f182fd0b994a2",
    "dn": " Let The Right One In (2008) 1080p Blu-Ray x264 DTS-HD MSubs -DD",
    "tr": [
      "udp://exodus.desync.com:6969",
      "udp://open.demonii.com:1337",
      "udp://tracker.coppersurfer.tk:6969",
      "udp://tracker.leechers-paradise.org:6969",
      "udp://zer0day.ch:1337"
    ],
    "infoHash": "2d9660a49bf9eaaf357074d7b87f182fd0b994a2",
    "infoHashBuffer": {
      "type": "Buffer",
      "data": [
        45,
        150,
        96,
        164,
        155,
        249,
        234,
        175,
        53,
        112,
        116,
        215,
        184,
        127,
        24,
        47,
        208,
        185,
        148,
        162
      ]
    },
    "name": " Let The Right One In (2008) 1080p Blu-Ray x264 DTS-HD MSubs -DD",
    "announce": [
      "udp://exodus.desync.com:6969",
      "udp://open.demonii.com:1337",
      "udp://tracker.coppersurfer.tk:6969",
      "udp://tracker.leechers-paradise.org:6969",
      "udp://zer0day.ch:1337"
    ],
    "urlList": []
  },
  "previous": 29,
  "peers": 39,
  "last_updated": "2016-12-26T20:13:54.088Z"
}